{"title":"Superman Batman: Public Enemies [BDrip x264 720p - Ac3 Eng - Sof","uid":6149472,"size":2282857753,"categoryP":"video","categoryS":"hd___movies","magnet":"?xt=urn:btih:6ac7aedd58a8fabd766e86e939b6de7bd23d9a5b&amp;dn=Superman+Batman%3A+Public+Enemies+%5BBDrip+x264+720p+-+Ac3+Eng+-+Sof&amp;tr=udp%3A%2F%2Ftracker.openbittorrent.com%3A80&amp;tr=udp%3A%2F%2Fopen.demonii.com%3A1337&amp;tr=udp%3A%2F%2Ftracker.coppersurfer.tk%3A6969&amp;tr=udp%3A%2F%2Fexodus.desync.com%3A6969","seeders":2,"leechers":1,"uploader":"Collerom","files":1,"time":1296827059,"description":" &lt;a href=&quot;\nhttp://img834.imageshack.us/img834/5540/supermanbatmanpublicened.jpg&quot; rel=&quot;nofollow&quot; target=&quot;_NEW&quot;&gt;\nhttp://img834.imageshack.us/img834/5540/supermanbatmanpublicened.jpg&lt;/a&gt;\n\n\n\nSuperman/Batman: Public Enemies is a 2009 original direct-to-video animated film adaptation of &quot;Public Enemies&quot; -- the opening story arc of DC Comics' Superman/Batman -- which focuses on Superman  and Batman  teaming up to prevent a meteoroid  from striking Earth and take down Lex Luthor, who has been elected President of the United States. The film is the sixth in the line of the DC Universe Animated Original Movies line released by Warner Premiere and Warner Bros. Animation. Voice actors from the DCAU reprised their roles, although it is not a DCAU production and is said not to be connected with that universe beyond sharing of voice actors.\n\n &lt;a href=&quot;\nhttp://img80.imageshack.us/i/supermanbatmanpublicene.png/&quot; rel=&quot;nofollow&quot; target=&quot;_NEW&quot;&gt;\nhttp://img80.imageshack.us/i/supermanbatmanpublicene.png/&lt;/a&gt; &lt;a href=&quot;\nhttp://img64.imageshack.us/i/supermanbatmanpublicene.png/&quot; rel=&quot;nofollow&quot; target=&quot;_NEW&quot;&gt;\nhttp://img64.imageshack.us/i/supermanbatmanpublicene.png/&lt;/a&gt; &lt;a href=&quot;\nhttp://img141.imageshack.us/i/supermanbatmanpublicene.png/&quot; rel=&quot;nofollow&quot; target=&quot;_NEW&quot;&gt;\nhttp://img141.imageshack.us/i/supermanbatmanpublicene.png/&lt;/a&gt; &lt;a href=&quot;\nhttp://img214.imageshack.us/i/supermanbatmanpublicene.png/&quot; rel=&quot;nofollow&quot; target=&quot;_NEW&quot;&gt;\nhttp://img214.imageshack.us/i/supermanbatmanpublicene.png/&lt;/a&gt; &lt;a href=&quot;\nhttp://img404.imageshack.us/i/supermanbatmanpublicene.png/&quot; rel=&quot;nofollow&quot; target=&quot;_NEW&quot;&gt;\nhttp://img404.imageshack.us/i/supermanbatmanpublicene.png/&lt;/a&gt;\n\n\nComplete name                    : Superman Batman Public Enemies 720p.mkv\nFormat                           : Matroska\nFile size                        : 2.13 GiB\nDuration                         : 1h 7mn\nOverall bit rate                 : 4 541 Kbps\nEncoded date                     : UTC 2009-09-28 17:05:48\nWriting application              : mkvmerge v2.9.7 ('Tenderness') built on Jul  1 2009 18:43:35\nWriting library                  : libebml v0.7.7 + libmatroska v0.8.1\n\nVideo\nID                               : 1\nFormat                           : AVC\nFormat/Info                      : Advanced Video Codec\nFormat profile                   : &lt;a class=&quot;__cf_email__&quot; href=&quot;/cdn-cgi/l/email-protection&quot; data-cfemail=&quot;6528040c0b2529564b54&quot;&gt;[email&amp;#160;protected]&lt;/a&gt;&lt;script cf-hash='f9e31' type=&quot;text/javascript&quot;&gt;\n/* &lt;![CDATA[ */!function(){try{var t=&quot;currentScript&quot;in document?document.currentScript:function(){for(var t=document.getElementsByTagName(&quot;script&quot;),e=t.length;e--;)if(t[e].getAttribute(&quot;cf-hash&quot;))return t[e]}();if(t&amp;&amp;t.previousSibling){var e,r,n,i,c=t.previousSibling,a=c.getAttribute(&quot;data-cfemail&quot;);if(a){for(e=&quot;&quot;,r=parseInt(a.substr(0,2),16),n=2;a.length-n;n+=2)i=parseInt(a.substr(n,2),16)^r,e+=String.fromCharCode(i);e=document.createTextNode(e),c.parentNode.replaceChild(e,c)}}}catch(u){}}();/* ]]&gt; */&lt;/script&gt;\nFormat settings, CABAC           : Yes\nFormat settings, ReFrames        : 1 frame\nCodec ID                         : V_MPEG4/ISO/AVC\nDuration                         : 1h 7mn\nBit rate                         : 3 899 Kbps\nWidth                            : 1 280 pixels\nHeight                           : 720 pixels\nDisplay aspect ratio             : 16:9\nFrame rate                       : 23.976 fps\nColor space                      : YUV\nChroma subsampling               : 4:2:0\nBit depth                        : 8 bits\nScan type                        : Progressive\nBits/(Pixel*Frame)               : 0.176\nStream size                      : 1.78 GiB (84%)\n\n\nAudio\nID                               : 2\nFormat                           : AC-3\nFormat/Info                      : Audio Coding 3\nMode extension                   : CM (complete main)\nCodec ID                         : A_AC3\nDuration                         : 1h 7mn\nBit rate mode                    : Constant\nBit rate                         : 640 Kbps\nChannel(s)                       : 6 channels\nChannel positions                : Front: L C R, Side: L R, LFE\nSampling rate                    : 48.0 KHz\nBit depth                        : 16 bits\nStream size                      : 307 MiB (14%)\nTitle                            : Superman Batman Public Enemies 2009 Ac3\nLanguage                         : English\n\nText #1\nID                               : 3\nFormat                           : UTF-8\nCodec ID                         : S_TEXT/UTF8\nCodec ID/Info                    : UTF-8 Plain Text\nLanguage                         : Italian\n\n\n\n\n","torrent":{"xt":"urn:btih:6ac7aedd58a8fabd766e86e939b6de7bd23d9a5b","amp;dn":"Superman+Batman%3A+Public+Enemies+%5BBDrip+x264+720p+-+Ac3+Eng+-+Sof","amp;tr":["udp%3A%2F%2Ftracker.openbittorrent.com%3A80","udp%3A%2F%2Fopen.demonii.com%3A1337","udp%3A%2F%2Ftracker.coppersurfer.tk%3A6969","udp%3A%2F%2Fexodus.desync.com%3A6969"],"infoHash":"6ac7aedd58a8fabd766e86e939b6de7bd23d9a5b","infoHashBuffer":{"type":"Buffer","data":[106,199,174,221,88,168,250,189,118,110,134,233,57,182,222,123,210,61,154,91]},"announce":[],"urlList":[]}}